<?xml version="1.0" encoding="utf-8"?>
<svg width="40pt" height="40pt" viewBox="0 0 40 40" version="1.1" xmlns="http://www.w3.org/2000/svg" xmlns:bx="https://boxy-svg.com">
  <g id="surface1" transform="matrix(0.9, 0, 0, 0.9, 2, 2)" bx:origin="0.5 0.5">
    <path style=" stroke:none;fill-rule:nonzero;fill:rgb(0%,20%,47.843137%);fill-opacity:1;" d="M 40 20 C 40 31.046875 31.046875 40 20 40 C 8.953125 40 0 31.046875 0 20 C 0 8.953125 8.953125 0 20 0 C 31.046875 0 40 8.953125 40 20 Z M 40 20 "/>
    <path style=" stroke:none;fill-rule:nonzero;fill:rgb(0%,14.901961%,34.901961%);fill-opacity:1;" d="M 40 20 C 40 19.367188 39.96875 18.742188 39.910156 18.128906 L 30.730469 8.945312 C 30.730469 8.945312 7.75 4.191406 10.558594 30.800781 L 19.753906 39.996094 C 19.835938 39.996094 19.917969 40 20 40 C 31.046875 40 40 31.046875 40 20 Z M 40 20 "/>
    <path style=" stroke:none;fill-rule:nonzero;fill:rgb(100%,95.686275%,77.254902%);fill-opacity:1;" d="M 17.402344 20 C 17.402344 13.851562 22.746094 8.867188 29.335938 8.867188 C 29.808594 8.867188 30.273438 8.894531 30.730469 8.945312 C 28.09375 6.570312 24.605469 5.125 20.78125 5.125 C 12.566406 5.125 5.90625 11.785156 5.90625 20 C 5.90625 28.214844 12.566406 34.875 20.78125 34.875 C 24.605469 34.875 28.09375 33.429688 30.730469 31.054688 C 30.273438 31.105469 29.808594 31.132812 29.335938 31.132812 C 22.746094 31.132812 17.402344 26.148438 17.402344 20 Z M 17.402344 20 "/>
    <path style=" stroke:none;fill-rule:nonzero;fill:rgb(100%,91.764706%,57.254902%);fill-opacity:1;" d="M 29.335938 31.132812 C 29.808594 31.132812 30.273438 31.105469 30.730469 31.054688 C 28.09375 33.429688 24.605469 34.875 20.78125 34.875 C 20.519531 34.875 20.257812 34.867188 20 34.851562 L 20 26.933594 C 22.1875 29.492188 25.554688 31.132812 29.335938 31.132812 Z M 29.335938 31.132812 "/>
    <path style=" stroke:none;fill-rule:nonzero;fill:rgb(100%,91.764706%,57.254902%);fill-opacity:1;" d="M 20 13.066406 L 20 5.148438 C 20.257812 5.132812 20.519531 5.125 20.78125 5.125 C 24.605469 5.125 28.09375 6.570312 30.730469 8.945312 C 30.273438 8.894531 29.808594 8.867188 29.335938 8.867188 C 25.554688 8.867188 22.1875 10.507812 20 13.066406 Z M 20 13.066406 "/>
  </g>
</svg>